<svg width="244" height="219" viewBox="0 0 244 219" fill="none" xmlns="http://www.w3.org/2000/svg">
<g filter="url(#filter0_d_3426_21770)">
<mask id="path-1-inside-1_3426_21770" fill="white">
<path fill-rule="evenodd" clip-rule="evenodd" d="M22.5932 1.79102C14.5336 1.79102 8 8.32461 8 16.3842V47.2908C8 55.3504 14.5336 61.884 22.5932 61.884H88.7903C89.1598 63.9638 89.8395 66.8863 90.9806 69.0023C93.1295 72.9874 96.7324 74.6094 98.4847 74.6094V61.884H221.407C229.466 61.884 236 55.3504 236 47.2908V16.3842C236 8.32461 229.466 1.79102 221.407 1.79102H22.5932Z"/>
</mask>
<path fill-rule="evenodd" clip-rule="evenodd" d="M22.5932 1.79102C14.5336 1.79102 8 8.32461 8 16.3842V47.2908C8 55.3504 14.5336 61.884 22.5932 61.884H88.7903C89.1598 63.9638 89.8395 66.8863 90.9806 69.0023C93.1295 72.9874 96.7324 74.6094 98.4847 74.6094V61.884H221.407C229.466 61.884 236 55.3504 236 47.2908V16.3842C236 8.32461 229.466 1.79102 221.407 1.79102H22.5932Z" fill="white"/>
<path d="M88.7903 61.884L90.649 61.5538L90.3722 59.9963H88.7903V61.884ZM90.9806 69.0023L92.6422 68.1064L92.6422 68.1064L90.9806 69.0023ZM98.4847 74.6094V76.4971H100.372V74.6094H98.4847ZM98.4847 61.884V59.9963H96.597V61.884H98.4847ZM9.88773 16.3842C9.88773 9.36718 15.5762 3.67875 22.5932 3.67875V-0.096714C13.491 -0.096714 6.11227 7.28205 6.11227 16.3842H9.88773ZM9.88773 47.2908V16.3842H6.11227V47.2908H9.88773ZM22.5932 59.9963C15.5762 59.9963 9.88773 54.3079 9.88773 47.2908H6.11227C6.11227 56.393 13.491 63.7718 22.5932 63.7718V59.9963ZM88.7903 59.9963H22.5932V63.7718H88.7903V59.9963ZM86.9317 62.2142C87.3066 64.3243 88.0261 67.5005 89.319 69.8983L92.6422 68.1064C91.653 66.272 91.0131 63.6034 90.649 61.5538L86.9317 62.2142ZM89.319 69.8983C90.5537 72.188 92.2174 73.8188 93.8516 74.8824C95.4388 75.9154 97.1328 76.4971 98.4847 76.4971V72.7216C98.0843 72.7216 97.1007 72.4924 95.9111 71.7181C94.7685 70.9745 93.5564 69.8018 92.6422 68.1064L89.319 69.8983ZM100.372 74.6094V61.884H96.597V74.6094H100.372ZM221.407 59.9963H98.4847V63.7718H221.407V59.9963ZM234.112 47.2908C234.112 54.3079 228.424 59.9963 221.407 59.9963V63.7718C230.509 63.7718 237.888 56.393 237.888 47.2908H234.112ZM234.112 16.3842V47.2908H237.888V16.3842H234.112ZM221.407 3.67875C228.424 3.67875 234.112 9.36718 234.112 16.3842H237.888C237.888 7.28205 230.509 -0.096714 221.407 -0.096714V3.67875ZM22.5932 3.67875H221.407V-0.096714H22.5932V3.67875Z" fill="#ACB1BC" fill-opacity="0.8" mask="url(#path-1-inside-1_3426_21770)"/>
</g>
<path d="M29.7367 29.0628C29.7367 31.249 31.6219 32.4213 34.7269 32.4213C37.8319 32.4213 39.7171 31.249 39.7171 29.0628C39.7171 26.8767 37.8319 25.7044 34.7269 25.7044C31.6219 25.7044 29.7367 26.8767 29.7367 29.0628ZM37.6893 29.0628C37.6893 30.0292 36.8339 30.7104 34.7269 30.7104C32.6199 30.7104 31.7645 30.0292 31.7645 29.0628C31.7645 28.0965 32.6199 27.4153 34.7269 27.4153C36.8339 27.4153 37.6893 28.0965 37.6893 29.0628ZM33.713 35.3045V39.4392C33.713 40.0254 34.2041 40.2947 34.7269 40.2947C35.2497 40.2947 35.7408 40.0254 35.7408 39.4392V35.3045H40.7151C41.2062 35.3045 41.428 34.9085 41.428 34.449C41.428 33.9896 41.2062 33.5936 40.7151 33.5936H28.7387C28.2476 33.5936 28.0258 33.9896 28.0258 34.449C28.0258 34.9085 28.2476 35.3045 28.7387 35.3045H33.713ZM47.6721 28.0173C47.9414 28.0173 48.0365 28.1123 48.0365 28.3816V29.8708C48.0365 30.1401 47.9414 30.2351 47.6721 30.2351H44.6147C43.6008 30.2351 43.2681 30.552 43.2681 31.55V34.5758C43.2681 35.5738 43.6008 35.8906 44.6147 35.8906C47.9097 35.8906 49.7316 35.7481 51.0306 35.5738C51.49 35.5104 51.6484 35.0827 51.6009 34.6075C51.5534 34.1639 51.2682 33.8154 50.7771 33.8787C49.2405 34.0847 47.6088 34.1797 45.6285 34.1797C45.3592 34.1797 45.2642 34.0847 45.2642 33.8154V32.247C45.2642 31.9777 45.3592 31.8827 45.6285 31.8827H48.686C49.6999 31.8827 50.0325 31.5658 50.0325 30.5678V27.6212C50.0325 26.6232 49.6999 26.3064 48.686 26.3064H43.9651C43.474 26.3064 43.2523 26.7024 43.2523 27.1618C43.2523 27.6212 43.474 28.0173 43.9651 28.0173H47.6721ZM54.5791 26.1955C54.5791 25.6093 54.088 25.34 53.5494 25.34C53.0266 25.34 52.5356 25.6093 52.5356 26.1955V38.3303C52.5356 38.9164 53.0266 39.1857 53.5494 39.1857C54.088 39.1857 54.5791 38.9164 54.5791 38.3303V26.1955ZM58.4787 35.9699C57.7658 35.9699 57.2272 36.5085 57.2272 37.2214C57.2272 37.9342 57.7658 38.4729 58.4787 38.4729C59.1916 38.4729 59.7302 37.9342 59.7302 37.2214C59.7302 36.5085 59.1916 35.9699 58.4787 35.9699ZM62.7176 35.9699C62.0047 35.9699 61.4661 36.5085 61.4661 37.2214C61.4661 37.9342 62.0047 38.4729 62.7176 38.4729C63.4305 38.4729 63.9691 37.9342 63.9691 37.2214C63.9691 36.5085 63.4305 35.9699 62.7176 35.9699ZM76.1606 28.1282C76.6517 28.1282 76.8735 27.7321 76.8735 27.2727C76.8735 26.7975 76.6517 26.4014 76.1606 26.4014H71.1546C70.1407 26.4014 69.8081 26.7182 69.8081 27.7163V34.2431C69.8081 35.2411 70.1407 35.558 71.1546 35.558C74.2913 35.558 76.1131 35.4154 77.4121 35.2411C77.8715 35.1778 78.03 34.75 77.9824 34.2748C77.9349 33.8154 77.6498 33.4669 77.1587 33.5302C75.622 33.7362 73.9903 33.8312 72.2002 33.8312C71.9309 33.8312 71.8358 33.7362 71.8358 33.4669V28.4925C71.8358 28.2232 71.9309 28.1282 72.2002 28.1282H76.1606ZM80.7547 30.0133V26.1955C80.7547 25.6093 80.2637 25.34 79.7409 25.34C79.2181 25.34 78.727 25.6093 78.727 26.1955V38.3303C78.727 38.9164 79.2181 39.1857 79.7409 39.1857C80.2637 39.1857 80.7547 38.9164 80.7547 38.3303V31.7718H82.2439C82.7508 31.7718 82.9726 31.3757 82.9726 30.8846C82.9726 30.4094 82.7508 30.0133 82.2439 30.0133H80.7547ZM89.4227 26.94C89.4227 26.338 88.9316 26.0687 88.393 26.0687C87.8544 26.0687 87.3633 26.338 87.3633 26.94V29.1579C87.3633 30.4252 87.0147 31.2332 86.1434 32.1995C85.5731 32.8173 84.9553 33.4352 84.3058 34.0372C83.9256 34.4015 83.9731 34.9401 84.2899 35.3045C84.5751 35.6213 85.1612 35.8431 85.5573 35.4788C86.191 34.8926 86.7137 34.3698 87.2207 33.8312C88.0603 32.9441 88.3138 32.5797 88.393 32.1995H88.4088C88.4722 32.5163 88.7257 32.8965 89.5653 33.7837C90.0722 34.3223 90.595 34.8451 91.0069 35.2253C91.3712 35.5738 91.9415 35.4312 92.2425 35.1302C92.5594 34.7976 92.7019 34.2114 92.3059 33.8629C91.8306 33.4352 91.2128 32.8173 90.6425 32.1995C89.7712 31.2332 89.4227 30.4252 89.4227 29.1579V26.94ZM95.8545 26.1955C95.8545 25.6093 95.3634 25.34 94.8247 25.34C94.302 25.34 93.8109 25.6093 93.8109 26.1955V38.3303C93.8109 38.9164 94.302 39.1857 94.8247 39.1857C95.3634 39.1857 95.8545 38.9164 95.8545 38.3303V26.1955ZM114.82 33.4827C115.279 33.4827 115.501 33.1183 115.501 32.6589C115.501 32.2154 115.279 31.851 114.82 31.851H109.798V30.8213H112.412C113.425 30.8213 113.758 30.5044 113.758 29.5064V26.2747C113.758 25.7202 113.267 25.4509 112.776 25.4509C112.285 25.4509 111.794 25.7202 111.794 26.2747V26.845H105.806V26.2747C105.806 25.7202 105.314 25.4509 104.823 25.4509C104.332 25.4509 103.841 25.7202 103.841 26.2747V29.5064C103.841 30.5044 104.174 30.8213 105.188 30.8213H107.802V31.851H102.78C102.32 31.851 102.099 32.2154 102.099 32.6589C102.099 33.1183 102.32 33.4827 102.78 33.4827H114.82ZM104.412 34.2114C103.968 34.2114 103.762 34.5916 103.762 34.9718C103.762 35.3837 103.968 35.7481 104.412 35.7481H111.588C111.746 35.7481 111.825 35.8273 111.825 35.9857V36.2233C111.825 36.3817 111.746 36.461 111.588 36.461H105.14C104.126 36.461 103.794 36.7778 103.794 37.7758V38.8689C103.794 39.8669 104.126 40.1838 105.14 40.1838H113.441C113.885 40.1838 114.091 39.8194 114.091 39.4075C114.091 39.0273 113.885 38.6471 113.441 38.6471H105.98C105.821 38.6471 105.742 38.5679 105.742 38.4095V38.1719C105.742 38.0135 105.821 37.9342 105.98 37.9342H112.427C113.441 37.9342 113.774 37.6174 113.774 36.6194V35.5263C113.774 34.5283 113.441 34.2114 112.427 34.2114H104.412ZM106.043 29.2371C105.885 29.2371 105.806 29.1579 105.806 28.9995V28.4133H111.794V28.9995C111.794 29.1579 111.715 29.2371 111.556 29.2371H106.043ZM129.618 29.2688C128.684 28.7618 128.208 28.0806 128.208 27.1777V26.5757C128.208 25.9737 127.717 25.7044 127.179 25.7044C126.64 25.7044 126.149 25.9737 126.149 26.5757V27.1777C126.149 28.0806 125.674 28.7618 124.739 29.2688C123.757 29.7916 122.822 30.2351 121.967 30.6312C121.523 30.8371 121.491 31.4391 121.697 31.851C121.919 32.2787 122.394 32.5163 122.838 32.3104C123.884 31.8351 124.818 31.3757 125.69 30.9005C126.688 30.3619 127.084 29.9183 127.179 29.5064H127.194C127.274 29.8549 127.67 30.3143 128.668 30.853C129.539 31.3282 130.474 31.7876 131.519 32.2629C131.963 32.4688 132.454 32.247 132.66 31.8193C132.85 31.4233 132.834 30.8371 132.391 30.6312C131.535 30.2351 130.6 29.7916 129.618 29.2688ZM126.165 35.3045V39.4392C126.165 40.0254 126.656 40.2947 127.179 40.2947C127.701 40.2947 128.193 40.0254 128.193 39.4392V35.3045H133.167C133.658 35.3045 133.88 34.9085 133.88 34.449C133.88 33.9896 133.658 33.5936 133.167 33.5936H121.19C120.699 33.5936 120.478 33.9896 120.478 34.449C120.478 34.9085 120.699 35.3045 121.19 35.3045H126.165ZM139.332 29.4589C139.332 31.5183 140.615 32.9916 143.134 32.9916C145.653 32.9916 146.936 31.5183 146.936 29.4589C146.936 27.3994 145.653 25.9262 143.134 25.9262C140.615 25.9262 139.332 27.3994 139.332 29.4589ZM145.003 29.4589C145.003 30.4886 144.496 31.3282 143.134 31.3282C141.771 31.3282 141.264 30.4886 141.264 29.4589C141.264 28.4292 141.771 27.5895 143.134 27.5895C144.496 27.5895 145.003 28.4292 145.003 29.4589ZM150.991 26.1955C150.991 25.6093 150.5 25.34 149.977 25.34C149.455 25.34 148.964 25.6093 148.964 26.1955V32.8332C148.964 33.4193 149.455 33.6886 149.977 33.6886C150.5 33.6886 150.991 33.4193 150.991 32.8332V26.1955ZM152.069 38.457C151.625 38.1243 151.102 37.7125 150.643 37.3006C150.073 36.7778 149.819 36.3025 149.819 35.4946V34.8292C149.819 34.2589 149.328 33.9896 148.821 33.9896C148.298 33.9896 147.823 34.2589 147.823 34.8292V35.4946C147.823 36.2867 147.68 36.6669 147.237 37.1738C147.015 37.4115 146.746 37.6808 146.54 37.855C146.286 38.0768 146.16 38.0768 145.906 37.855C145.7 37.6808 145.431 37.4115 145.209 37.1738C144.766 36.6669 144.623 36.2867 144.623 35.4946V34.8292C144.623 34.2589 144.148 33.9896 143.625 33.9896C143.118 33.9896 142.627 34.2589 142.627 34.8292V35.4946C142.627 36.3025 142.373 36.7778 141.803 37.3006C141.344 37.7125 140.821 38.1243 140.377 38.457C139.997 38.7422 140.029 39.2808 140.33 39.661C140.631 40.0412 141.106 40.1679 141.565 39.8353C141.914 39.5818 142.247 39.3125 142.595 39.0115C143.308 38.3937 143.53 38.0927 143.625 37.7441H143.641C143.736 38.0927 143.958 38.362 144.639 39.0115C144.861 39.2174 145.082 39.4234 145.32 39.6135C146.001 40.1679 146.445 40.1679 147.126 39.6135C147.364 39.4234 147.585 39.2174 147.807 39.0115C148.488 38.362 148.71 38.0927 148.805 37.7441H148.821C148.916 38.061 149.138 38.362 149.851 38.9798C150.215 39.2966 150.532 39.5501 150.88 39.8036C151.34 40.1363 151.815 40.0095 152.116 39.6293C152.401 39.265 152.449 38.7422 152.069 38.457ZM157.426 29.5856C157.156 29.5856 157.061 29.4906 157.061 29.2213V26.5598C157.061 25.9737 156.57 25.7044 156.047 25.7044C155.509 25.7044 155.018 25.9737 155.018 26.5598V29.9817C155.018 30.9797 155.35 31.2965 156.364 31.2965H164.475C164.966 31.2965 165.188 30.9005 165.188 30.4411C165.188 29.9817 164.966 29.5856 164.475 29.5856H157.426ZM165.964 34.3698C166.455 34.3698 166.677 33.9738 166.677 33.5144C166.677 33.055 166.455 32.6589 165.964 32.6589H153.988C153.497 32.6589 153.275 33.055 153.275 33.5144C153.275 33.9738 153.497 34.3698 153.988 34.3698H165.964ZM157.394 38.2669C157.125 38.2669 157.03 38.1719 157.03 37.9026V36.2075C157.03 35.6213 156.538 35.352 156.016 35.352C155.477 35.352 154.986 35.6213 154.986 36.2075V38.663C154.986 39.661 155.319 39.9778 156.333 39.9778H164.507C164.998 39.9778 165.22 39.5818 165.22 39.1224C165.22 38.663 164.998 38.2669 164.507 38.2669H157.394ZM177.912 38.3303C177.912 38.9164 178.403 39.1857 178.925 39.1857C179.432 39.1857 179.923 38.9164 179.923 38.3303V26.1955C179.923 25.6093 179.432 25.34 178.925 25.34C178.403 25.34 177.912 25.6093 177.912 26.1955V30.1084H175.076C175.076 29.9183 175.092 29.6965 175.092 29.4747V27.748C175.092 26.7499 174.759 26.4331 173.745 26.4331H169.072C168.581 26.4331 168.359 26.8291 168.359 27.3044C168.359 27.7638 168.581 28.1599 169.072 28.1599H172.715C172.985 28.1599 173.08 28.2549 173.08 28.5242V29.4114C173.08 31.3441 172.874 31.7718 168.565 34.4015C168.105 34.6867 168.153 35.2887 168.406 35.6689C168.66 36.0491 169.199 36.2867 169.642 36.0174C172.747 34.1005 174.109 33.0708 174.696 31.8193H177.912V38.3303ZM190.08 28.144C190.572 28.144 190.793 27.748 190.793 27.2886C190.793 26.8133 190.572 26.4173 190.08 26.4173H183.427C182.936 26.4173 182.714 26.8133 182.714 27.2886C182.714 27.748 182.936 28.144 183.427 28.144H185.787V29.348C185.787 30.7104 185.486 31.4549 184.615 32.3579C184.013 32.9758 183.411 33.5461 182.746 34.1322C182.35 34.4807 182.397 35.0352 182.714 35.3996C182.999 35.7164 183.554 35.9382 183.966 35.5897C184.568 35.0669 185.138 34.5124 185.708 33.9421C186.532 33.1183 186.738 32.7698 186.817 32.4055H186.833C186.896 32.7064 187.102 33.0708 187.926 33.8946C188.496 34.4649 189.019 34.9718 189.431 35.3362C189.811 35.6689 190.334 35.5263 190.651 35.2095C190.968 34.8768 191.094 34.3065 190.698 33.958C190.223 33.5461 189.621 32.9758 189.019 32.3579C188.148 31.4549 187.847 30.7104 187.847 29.348V28.144H190.08ZM194.247 26.1955C194.247 25.6093 193.756 25.34 193.217 25.34C192.694 25.34 192.203 25.6093 192.203 26.1955V38.3303C192.203 38.9164 192.694 39.1857 193.217 39.1857C193.756 39.1857 194.247 38.9164 194.247 38.3303V26.1955ZM198.146 35.9699C197.434 35.9699 196.895 36.5085 196.895 37.2214C196.895 37.9342 197.434 38.4729 198.146 38.4729C198.859 38.4729 199.398 37.9342 199.398 37.2214C199.398 36.5085 198.859 35.9699 198.146 35.9699ZM202.385 35.9699C201.672 35.9699 201.134 36.5085 201.134 37.2214C201.134 37.9342 201.672 38.4729 202.385 38.4729C203.098 38.4729 203.637 37.9342 203.637 37.2214C203.637 36.5085 203.098 35.9699 202.385 35.9699ZM206.624 35.9699C205.911 35.9699 205.373 36.5085 205.373 37.2214C205.373 37.9342 205.911 38.4729 206.624 38.4729C207.337 38.4729 207.876 37.9342 207.876 37.2214C207.876 36.5085 207.337 35.9699 206.624 35.9699ZM213.018 26.243C211.703 26.243 210.673 26.6549 209.897 27.2569C209.485 27.5737 209.485 28.1123 209.786 28.4925C210.087 28.8886 210.531 28.9995 210.942 28.7143C211.513 28.3183 212.115 28.0331 212.954 28.0331C214.206 28.0331 214.665 28.6193 214.665 29.2846V29.3638C214.665 29.9975 214.491 30.346 213.176 31.4866C212.035 32.4847 211.861 33.0708 211.861 34.1797C211.861 34.75 212.305 35.0035 212.828 35.0035C213.319 35.0035 213.746 34.7025 213.746 34.2273C213.746 33.5619 213.873 33.2292 214.792 32.4055C216.281 31.0589 216.693 30.3777 216.693 29.348V29.1737C216.693 27.447 215.315 26.243 213.018 26.243ZM212.812 36.0649C212.131 36.0649 211.608 36.5877 211.608 37.2689C211.608 37.9501 212.131 38.4729 212.812 38.4729C213.493 38.4729 214.016 37.9501 214.016 37.2689C214.016 36.5877 213.493 36.0649 212.812 36.0649Z" fill="#7A7A7A"/>
<g filter="url(#filter1_d_3426_21770)">
<rect x="57.3379" y="133.76" width="129.096" height="58.9877" rx="2.41753" transform="rotate(-0.152663 57.3379 133.76)" fill="#F2C040"/>
</g>
<rect x="57.3379" y="133.76" width="118.459" height="58.9877" rx="2.41753" transform="rotate(-0.152663 57.3379 133.76)" fill="#FED469"/>
<rect x="77.7979" y="151.934" width="87.6574" height="34.5691" rx="17.2846" transform="rotate(-0.152663 77.7979 151.934)" fill="#FFF9C0"/>
<g filter="url(#filter2_d_3426_21770)">
<path d="M191.002 147.27C191.506 145.436 192.349 143.62 194.066 142.633C194.682 142.279 195.691 142.099 196.369 142.097C197.66 142.094 198.787 142.332 199.955 142.861C201.208 143.535 202.414 144.209 203.33 145.037C204.866 146.426 205.775 147.874 206.033 148.309C207.694 151.117 208.999 154.095 210.385 157.046C211.658 159.754 213.282 162.213 214.701 164.845C216.093 167.426 217.97 169.707 219.315 172.308C220.138 173.9 221.203 175.77 219.425 177.208C217.112 179.078 214.384 177.708 212.295 176.224C211.497 175.658 210.68 175.1 210.021 174.379C209.983 174.337 209.992 174.122 209.993 174.282C209.994 174.704 210.008 175.115 210.059 175.534C210.319 177.672 209.089 179.707 206.904 180.025C205.534 180.225 203.654 180.344 202.67 179.25C201.699 178.171 200.854 177.024 200.85 175.503C200.848 174.912 200.859 175.69 200.844 175.872C200.786 176.563 200.532 177.471 200.258 178.108C199.732 179.33 198.683 179.504 197.534 179.89C195.971 180.416 194.735 179.687 193.772 178.543C193.012 177.64 193.085 176.843 193.082 175.705" stroke="white" stroke-width="4.93845" stroke-linecap="round" shape-rendering="crispEdges"/>
</g>
<g filter="url(#filter3_d_3426_21770)">
<path d="M53.3282 147.637C52.8142 145.805 51.9616 143.994 50.2393 143.016C49.622 142.666 48.6113 142.491 47.9336 142.493C46.6426 142.496 45.5167 142.741 44.3514 143.276C43.1024 143.956 41.9002 144.637 40.9883 145.47C39.4596 146.867 38.5582 148.32 38.3034 148.756C36.6565 151.573 35.3682 154.558 33.9973 157.517C32.7394 160.231 31.128 162.699 29.7234 165.338C28.3454 167.927 26.4798 170.218 25.1494 172.826C24.3349 174.422 23.2795 176.298 25.065 177.726C27.3878 179.584 30.1085 178.2 32.1899 176.705C32.985 176.134 33.7991 175.572 34.4541 174.847C34.4919 174.805 34.4813 174.59 34.4817 174.75C34.4828 175.172 34.4712 175.583 34.4224 176.003C34.1735 178.142 35.4139 180.17 37.6013 180.477C38.9724 180.669 40.8529 180.778 41.8312 179.679C42.7965 178.594 43.635 177.443 43.631 175.923C43.6294 175.332 43.6226 176.109 43.6389 176.291C43.7008 176.982 43.9591 177.889 44.2365 178.524C44.7688 179.744 45.8187 179.912 46.9697 180.292C48.536 180.809 49.7678 180.074 50.7248 178.924C51.4798 178.018 51.4024 177.221 51.3994 176.083" stroke="white" stroke-width="4.93845" stroke-linecap="round" shape-rendering="crispEdges"/>
</g>
<g opacity="0.9" filter="url(#filter4_d_3426_21770)">
<path fill-rule="evenodd" clip-rule="evenodd" d="M86.0367 114.048C86.0358 114.048 86.0447 114.039 86.0658 114.023C86.0481 114.04 86.0375 114.048 86.0367 114.048ZM90.4474 112.513C91.885 112.177 93.6088 111.851 95.6009 111.55C102.695 110.477 112.614 109.792 123.649 109.776C134.685 109.759 144.605 110.416 151.703 111.467C153.696 111.763 155.421 112.083 156.859 112.415C155.422 112.751 153.698 113.076 151.706 113.377C144.611 114.45 134.693 115.136 123.657 115.152C112.622 115.168 102.701 114.512 95.6037 113.46C93.6107 113.165 91.886 112.845 90.4474 112.513ZM161.274 113.937C161.274 113.937 161.263 113.929 161.245 113.912C161.266 113.928 161.275 113.937 161.274 113.937ZM161.241 110.904C161.258 110.888 161.269 110.88 161.27 110.88C161.271 110.88 161.262 110.888 161.241 110.904ZM86.0614 111.015C86.0402 110.999 86.0313 110.991 86.0322 110.991C86.033 110.991 86.0436 110.999 86.0614 111.015ZM94.5975 104.914C102.112 103.778 112.378 103.081 123.639 103.064C134.901 103.048 145.169 103.715 152.687 104.829C156.42 105.382 159.622 106.066 161.965 106.891C163.115 107.297 164.26 107.804 165.181 108.476C166.009 109.08 167.379 110.358 167.382 112.399C167.385 114.441 166.019 115.723 165.193 116.329C164.274 117.003 163.13 117.514 161.981 117.923C159.641 118.755 156.44 119.449 152.709 120.013C145.195 121.149 134.929 121.847 123.667 121.863C112.406 121.88 102.137 121.213 94.6199 120.099C90.887 119.546 87.6844 118.861 85.3418 118.036C84.1911 117.631 83.0465 117.123 82.1253 116.451C81.2974 115.848 79.928 114.57 79.925 112.528C79.922 110.487 81.2876 109.205 82.1138 108.599C83.033 107.924 84.1761 107.413 85.3256 107.005C87.6657 106.172 90.8662 105.479 94.5975 104.914Z" fill="white"/>
</g>
<circle opacity="0.6" cx="105.282" cy="140.609" r="2.10775" transform="rotate(19.0791 105.282 140.609)" fill="#313131"/>
<circle opacity="0.6" cx="136.385" cy="140.954" r="2.10775" transform="rotate(19.0791 136.385 140.954)" fill="#313131"/>
<ellipse opacity="0.6" cx="121.62" cy="145.553" rx="4.91808" ry="1.40516" transform="rotate(1.18065 121.62 145.553)" fill="#313131"/>
<path d="M103.755 163.956C104.425 163.954 104.725 163.412 104.723 162.786C104.721 162.137 104.416 161.598 103.746 161.6L94.8431 161.632C94.1732 161.634 93.8726 162.175 93.8748 162.824C93.877 163.45 94.1814 163.989 94.8514 163.987L98.028 163.976L98.032 165.1C98.0366 166.418 97.6291 167.305 96.7026 168.108C95.7546 168.911 94.9357 169.562 94.0304 170.235C93.3837 170.713 93.4728 171.469 93.842 171.986C94.1677 172.439 94.9037 172.782 95.5288 172.326C96.3263 171.74 97.1237 171.111 97.964 170.394C98.9767 169.548 99.3425 169.093 99.4488 168.596L99.4705 168.596C99.58 169.027 99.8838 169.394 100.902 170.233C101.748 170.943 102.549 171.567 103.026 171.911C103.654 172.363 104.388 172.014 104.711 171.56C105.098 171.018 105.117 170.348 104.532 169.896C103.925 169.444 103.102 168.799 102.148 168.003C101.216 167.206 100.802 166.322 100.798 165.004L100.794 163.966L103.755 163.956ZM107.161 173.885C107.163 174.684 107.835 175.049 108.548 175.047C109.239 175.045 109.908 174.675 109.905 173.875L109.862 161.471C109.859 160.672 109.188 160.306 108.496 160.309C107.783 160.311 107.115 160.681 107.117 161.481L107.131 165.457L104.603 165.466C103.933 165.468 103.632 166.009 103.634 166.658C103.637 167.284 103.941 167.824 104.611 167.821L107.139 167.812L107.161 173.885ZM109.43 180.187C110.1 180.185 110.401 179.644 110.398 179.017C110.396 178.369 110.092 177.829 109.422 177.832L100.108 177.864C99.7405 177.865 99.6104 177.736 99.6091 177.369L99.5986 174.343C99.5958 173.544 98.9246 173.179 98.2115 173.181C97.4767 173.184 96.8081 173.554 96.8109 174.353L96.8251 178.438C96.8299 179.799 97.2852 180.23 98.6683 180.225L109.43 180.187ZM116.428 165.684C116.434 167.413 116.092 168.559 115.188 169.686C114.521 170.531 113.811 171.312 113.036 172.157C112.541 172.699 112.673 173.477 113.172 173.95C113.606 174.381 114.427 174.465 114.901 173.966C115.525 173.294 116.128 172.622 116.644 171.993C117.548 170.91 117.741 170.412 117.826 169.915L117.847 169.914C117.935 170.346 118.131 170.821 119.021 171.877C119.542 172.502 120.149 173.17 120.496 173.536C120.973 174.031 121.751 173.985 122.225 173.551C122.678 173.139 122.826 172.339 122.349 171.822C121.85 171.284 121.134 170.508 120.461 169.668C119.55 168.547 119.2 167.403 119.194 165.674L119.183 162.584C119.18 161.784 118.509 161.419 117.796 161.422C117.083 161.424 116.414 161.794 116.417 162.594L116.428 165.684ZM127.535 178.049C127.538 178.784 128.166 179.128 128.814 179.125C129.463 179.123 130.088 178.775 130.085 178.04L130.027 161.314C130.024 160.58 129.397 160.236 128.748 160.238C128.1 160.24 127.475 160.588 127.477 161.323L127.535 178.049ZM123.56 165.897L121.961 165.902C121.291 165.905 120.99 166.446 120.993 167.094C120.995 167.742 121.299 168.282 121.969 168.279L123.568 168.274L123.599 177.155C123.602 177.89 124.23 178.234 124.878 178.232C125.505 178.229 126.13 177.881 126.128 177.147L126.073 161.544C126.071 160.809 125.443 160.466 124.816 160.468C124.168 160.47 123.542 160.818 123.545 161.553L123.56 165.897ZM146.693 180.252C148.076 180.247 148.529 179.813 148.524 178.452L148.51 174.41C148.505 173.049 148.05 172.618 146.667 172.623L136.726 172.658C135.343 172.663 134.891 173.097 134.895 174.458L134.91 178.499C134.914 179.86 135.37 180.291 136.753 180.286L146.693 180.252ZM149.857 170.429C150.527 170.427 150.828 169.886 150.826 169.259C150.824 168.632 150.519 168.093 149.849 168.096L147.753 168.103C148.03 166.978 148.263 165.486 148.258 164.146L148.253 162.763C148.248 161.402 147.793 160.971 146.41 160.976L135.648 161.014C134.978 161.016 134.678 161.557 134.68 162.206C134.682 162.854 134.986 163.393 135.656 163.391L145.014 163.358C145.381 163.357 145.511 163.486 145.512 163.853L145.514 164.329C145.518 165.582 145.372 166.858 145.095 168.112L133.512 168.153C132.842 168.155 132.541 168.696 132.544 169.323C132.546 169.95 132.85 170.489 133.52 170.486L149.857 170.429ZM138.149 178.034C137.782 178.035 137.652 177.906 137.651 177.539L137.643 175.399C137.642 175.032 137.771 174.902 138.139 174.9L145.27 174.876C145.637 174.874 145.767 175.003 145.769 175.371L145.776 177.51C145.777 177.878 145.648 178.008 145.281 178.009L138.149 178.034Z" fill="#FED469"/>
<defs>
<filter id="filter0_d_3426_21770" x="3.87584" y="0.839286" width="239.421" height="84.2391" filterUnits="userSpaceOnUse" color-interpolation-filters="sRGB">
<feFlood flood-opacity="0" result="BackgroundImageFix"/>
<feColorMatrix in="SourceAlpha" type="matrix" values="0 0 0 0 0 0 0 0 0 0 0 0 0 0 0 0 0 0 127 0" result="hardAlpha"/>
<feOffset dx="1.58622" dy="4.75865"/>
<feGaussianBlur stdDeviation="2.85519"/>
<feComposite in2="hardAlpha" operator="out"/>
<feColorMatrix type="matrix" values="0 0 0 0 0 0 0 0 0 0 0 0 0 0 0 0 0 0 0.1 0"/>
<feBlend mode="normal" in2="BackgroundImageFix" result="effect1_dropShadow_3426_21770"/>
<feBlend mode="normal" in="SourceGraphic" in2="effect1_dropShadow_3426_21770" result="shape"/>
</filter>
<filter id="filter1_d_3426_21770" x="36.3563" y="117.372" width="171.216" height="101.295" filterUnits="userSpaceOnUse" color-interpolation-filters="sRGB">
<feFlood flood-opacity="0" result="BackgroundImageFix"/>
<feColorMatrix in="SourceAlpha" type="matrix" values="0 0 0 0 0 0 0 0 0 0 0 0 0 0 0 0 0 0 127 0" result="hardAlpha"/>
<feMorphology radius="1.23461" operator="dilate" in="SourceAlpha" result="effect1_dropShadow_3426_21770"/>
<feOffset dy="4.93845"/>
<feGaussianBlur stdDeviation="9.87689"/>
<feComposite in2="hardAlpha" operator="out"/>
<feColorMatrix type="matrix" values="0 0 0 0 0 0 0 0 0 0 0 0 0 0 0 0 0 0 0.1 0"/>
<feBlend mode="normal" in2="BackgroundImageFix" result="effect1_dropShadow_3426_21770"/>
<feBlend mode="normal" in="SourceGraphic" in2="effect1_dropShadow_3426_21770" result="shape"/>
</filter>
<filter id="filter2_d_3426_21770" x="167.544" y="123.577" width="76.3049" height="84.9748" filterUnits="userSpaceOnUse" color-interpolation-filters="sRGB">
<feFlood flood-opacity="0" result="BackgroundImageFix"/>
<feColorMatrix in="SourceAlpha" type="matrix" values="0 0 0 0 0 0 0 0 0 0 0 0 0 0 0 0 0 0 127 0" result="hardAlpha"/>
<feMorphology radius="1.23461" operator="dilate" in="SourceAlpha" result="effect1_dropShadow_3426_21770"/>
<feOffset dy="4.93845"/>
<feGaussianBlur stdDeviation="9.87689"/>
<feComposite in2="hardAlpha" operator="out"/>
<feColorMatrix type="matrix" values="0 0 0 0 0 0 0 0 0 0 0 0 0 0 0 0 0 0 0.2 0"/>
<feBlend mode="normal" in2="BackgroundImageFix" result="effect1_dropShadow_3426_21770"/>
<feBlend mode="normal" in="SourceGraphic" in2="effect1_dropShadow_3426_21770" result="shape"/>
</filter>
<filter id="filter3_d_3426_21770" x="0.631721" y="123.973" width="76.1545" height="85.0217" filterUnits="userSpaceOnUse" color-interpolation-filters="sRGB">
<feFlood flood-opacity="0" result="BackgroundImageFix"/>
<feColorMatrix in="SourceAlpha" type="matrix" values="0 0 0 0 0 0 0 0 0 0 0 0 0 0 0 0 0 0 127 0" result="hardAlpha"/>
<feMorphology radius="1.23461" operator="dilate" in="SourceAlpha" result="effect1_dropShadow_3426_21770"/>
<feOffset dy="4.93845"/>
<feGaussianBlur stdDeviation="9.87689"/>
<feComposite in2="hardAlpha" operator="out"/>
<feColorMatrix type="matrix" values="0 0 0 0 0 0 0 0 0 0 0 0 0 0 0 0 0 0 0.2 0"/>
<feBlend mode="normal" in2="BackgroundImageFix" result="effect1_dropShadow_3426_21770"/>
<feBlend mode="normal" in="SourceGraphic" in2="effect1_dropShadow_3426_21770" result="shape"/>
</filter>
<filter id="filter4_d_3426_21770" x="58.9364" y="87.0145" width="129.434" height="60.7756" filterUnits="userSpaceOnUse" color-interpolation-filters="sRGB">
<feFlood flood-opacity="0" result="BackgroundImageFix"/>
<feColorMatrix in="SourceAlpha" type="matrix" values="0 0 0 0 0 0 0 0 0 0 0 0 0 0 0 0 0 0 127 0" result="hardAlpha"/>
<feMorphology radius="1.23461" operator="dilate" in="SourceAlpha" result="effect1_dropShadow_3426_21770"/>
<feOffset dy="4.93845"/>
<feGaussianBlur stdDeviation="9.87689"/>
<feComposite in2="hardAlpha" operator="out"/>
<feColorMatrix type="matrix" values="0 0 0 0 0 0 0 0 0 0 0 0 0 0 0 0 0 0 0.2 0"/>
<feBlend mode="normal" in2="BackgroundImageFix" result="effect1_dropShadow_3426_21770"/>
<feBlend mode="normal" in="SourceGraphic" in2="effect1_dropShadow_3426_21770" result="shape"/>
</filter>
</defs>
</svg>
