<svg width="73" height="70" viewBox="0 0 73 70" fill="none" xmlns="http://www.w3.org/2000/svg">
<rect width="73" height="70" rx="11" fill="#E2E2E2"/>
<path d="M35 23.0742H29.2222C25.7858 23.0742 23 25.86 23 29.2964V41.7409C23 45.1773 25.7858 47.9631 29.2222 47.9631H42.7037C46.1401 47.9631 48.9259 45.1773 48.9259 41.7409V37" stroke="#747474" stroke-width="2" stroke-linecap="round" stroke-linejoin="round"/>
<path d="M37.7929 32.6633C37.4024 33.0538 37.4024 33.687 37.7929 34.0775C38.1834 34.468 38.8166 34.468 39.2071 34.0775L37.7929 32.6633ZM49.8704 23C49.8704 22.4477 49.4227 22 48.8704 22H39.8704C39.3181 22 38.8704 22.4477 38.8704 23C38.8704 23.5523 39.3181 24 39.8704 24H47.8704V32C47.8704 32.5523 48.3181 33 48.8704 33C49.4227 33 49.8704 32.5523 49.8704 32V23ZM39.2071 34.0775L49.5775 23.7071L48.1633 22.2929L37.7929 32.6633L39.2071 34.0775Z" fill="#747474"/>
</svg>
