<svg width="73" height="70" viewBox="0 0 73 70" fill="none" xmlns="http://www.w3.org/2000/svg">
<rect width="73" height="70" rx="11" fill="#FCE684"/>
<path d="M36.5 20C27.9395 20 21 25.5468 21 32.3891C21 36.8127 23.9012 40.6943 28.2653 42.8861C28.0279 43.7162 26.7396 48.2261 26.6884 48.5804C26.6884 48.5804 26.6575 48.8466 26.8276 48.9481C26.9976 49.0497 27.1976 48.9708 27.1976 48.9708C27.6853 48.9018 32.8526 45.2222 33.747 44.5833C34.6404 44.7115 35.5605 44.7782 36.5 44.7782C45.0605 44.7782 52 39.2315 52 32.3891C52 25.5468 45.0605 20 36.5 20Z" fill="#181600"/>
</svg>
